<svg height="512pt" viewBox="0 0 512 512" width="512pt" xmlns="http://www.w3.org/2000/svg"><path d="m512 256c0 141.386719-114.613281 256-256 256s-256-114.613281-256-256 114.613281-256 256-256 256 114.613281 256 256zm0 0" fill="#78b9eb"/><path d="m511.804688 246.464844-162.925782-162.929688-175.890625 175.890625 77.175781 77.171875-80.160156 80.160156 36.5 36.5-1.25 1.25 57.40625 57.40625c138.304688-3.53125 249.339844-116.757812 249.339844-255.914062 0-3.195312-.078125-6.367188-.195312-9.535156zm0 0" fill="#5aaae7"/><path d="m317.425781 367.386719v61.425781c0 20.390625-16.464843 36.851562-36.855469 36.851562h-49.140624c-20.394532 0-36.855469-16.460937-36.855469-36.851562v-61.425781l24.570312-25.390625h73.710938zm0 0" fill="#e2e2e7"/><path d="m317.425781 367.386719v61.425781c0 20.390625-16.464843 36.851562-36.855469 36.851562h-24.570312v-123.667968h36.855469zm0 0" fill="#d3d3d8"/><path d="m391.136719 181.46875c0 43-19.902344 82.3125-54.300781 108.109375-12.285157 9.089844-19.410157 22.113281-19.410157 35.382813v42.425781h-122.855469v-41.691407c0-14.003906-6.140624-26.78125-16.214843-33.90625-43.242188-30.464843-64.375-81.820312-55.527344-134.152343 9.335937-53.5625 51.105469-97.050781 104.175781-108.355469 9.585938-1.964844 19.410156-2.945312 28.992188-2.945312 30.960937 0 60.691406 10.5625 85.015625 30.21875 31.941406 25.800781 50.125 64.128906 50.125 104.914062zm0 0" fill="#ffe470"/><path d="m391.136719 181.46875c0 43-19.902344 82.3125-54.300781 108.109375-12.285157 9.089844-19.410157 22.113281-19.410157 35.382813v42.425781h-61.429687v-321.054688c30.960937 0 60.691406 10.566407 85.015625 30.222657 31.941406 25.800781 50.125 64.128906 50.125 104.914062zm0 0" fill="#fdbf00"/><path d="m170.003906 391.957031h73.710938v24.570313h-73.710938zm0 0" fill="#d3d3d8"/><path d="m268.28125 391.957031h73.710938v24.570313h-73.710938zm0 0" fill="#babac0"/><path d="m243.714844 230.609375h24.566406v85.996094h-24.566406zm0 0" fill="#fdbf00"/><path d="m255.996094 230.609375h12.285156v85.996094h-12.285156zm0 0" fill="#ff9f00"/><path d="m255.996094 169.183594c-20.390625 0-36.851563 16.464844-36.851563 36.855468 0 20.394532 16.460938 36.855469 36.851563 36.855469 20.394531 0 36.855468-16.460937 36.855468-36.855469 0-20.390624-16.460937-36.855468-36.855468-36.855468zm0 0" fill="#fdbf00"/><path d="m292.851562 206.039062c0 20.394532-16.460937 36.855469-36.855468 36.855469v-73.710937c20.394531 0 36.855468 16.464844 36.855468 36.855468zm0 0" fill="#ff9f00"/></svg>