<svg height="512pt" viewBox="0 0 512 512" width="512pt" xmlns="http://www.w3.org/2000/svg"><path d="m215.328125 201.851562c-.648437 0-1.308594-.070312-1.949219-.203124-.640625-.117188-1.269531-.320313-1.867187-.570313-.613281-.25-1.191407-.558594-1.730469-.917969-.550781-.359375-1.0625-.78125-1.519531-1.238281-.460938-.460937-.882813-.972656-1.242188-1.523437-.359375-.539063-.667969-1.117188-.917969-1.726563-.25-.601563-.441406-1.230469-.570312-1.871094-.132812-.640625-.199219-1.300781-.199219-1.949219 0-2.632812 1.066407-5.210937 2.929688-7.070312.460937-.460938.96875-.882812 1.519531-1.25.539062-.359375 1.121094-.660156 1.730469-.921875.597656-.25 1.230469-.4375 1.871093-.570313 1.289063-.257812 2.617188-.257812 3.90625 0 .632813.132813 1.261719.320313 1.871094.570313.601563.261719 1.179688.5625 1.722656.921875.546876.367188 1.058594.789062 1.519532 1.25.457031.457031.878906.96875 1.25 1.519531.359375.539063.667968 1.121094.917968 1.71875.25.609375.441407 1.242188.570313 1.871094.128906.648437.191406 1.308594.191406 1.960937 0 .648438-.0625 1.308594-.191406 1.949219s-.320313 1.269531-.570313 1.871094c-.25.609375-.558593 1.1875-.917968 1.726563-.371094.550781-.792969 1.0625-1.25 1.523437-.460938.457031-.972656.878906-1.519532 1.238281-.542968.359375-1.121093.667969-1.722656.917969-.609375.25-1.238281.453125-1.871094.570313-.648437.132812-1.308593.203124-1.960937.203124zm0 0"/><path d="m446 166.355469h-62c-5.523438 0-10-4.476563-10-10 0-5.523438 4.476562-10 10-10h62c5.523438 0 10 4.476562 10 10 0 5.523437-4.476562 10-10 10zm0 0"/><path d="m446 216.179688h-62c-5.523438 0-10-4.480469-10-10 0-5.523438 4.476562-10 10-10h62c5.523438 0 10 4.476562 10 10 0 5.519531-4.476562 10-10 10zm0 0"/><path d="m446 266h-62c-5.523438 0-10-4.476562-10-10s4.476562-10 10-10h62c5.523438 0 10 4.476562 10 10s-4.476562 10-10 10zm0 0"/><path d="m502 41.386719h-202.078125c-1.355469-23.050781-20.535156-41.386719-43.921875-41.386719s-42.566406 18.335938-43.921875 41.386719h-202.078125c-5.523438 0-10 4.476562-10 10v53.304687c0 5.523438 4.476562 10 10 10h5.5v255.28125c0 5.523438 4.476562 10 10 10h24v24.027344c0 5.523438 4.476562 10 10 10h186.6875c-.121094.625-.1875 1.269531-.1875 1.929688v35.039062c-12.390625 4.183594-21.332031 15.917969-21.332031 29.699219 0 17.277343 14.054687 31.332031 31.332031 31.332031s31.332031-14.054688 31.332031-31.332031c0-13.78125-8.941406-25.515625-21.332031-29.699219v-35.039062c0-.660157-.066406-1.308594-.1875-1.933594h186.6875c5.523438 0 10-4.476563 10-10v-24.023438h24c5.523438 0 10-4.476562 10-10v-255.28125h5.5c5.523438 0 10-4.476562 10-10v-53.304687c0-5.523438-4.476562-10-10-10zm-246 450.613281c-6.25 0-11.332031-5.085938-11.332031-11.332031 0-6.25 5.082031-11.332031 11.332031-11.332031s11.332031 5.082031 11.332031 11.332031c0 6.246093-5.082031 11.332031-11.332031 11.332031zm0-472c12.351562 0 22.554688 9.378906 23.859375 21.386719h-47.71875c1.304687-12.007813 11.507813-21.386719 23.859375-21.386719zm-236 41.386719h472v33.304687h-472zm422.5 332.613281h-373v-14.027344h373zm34-34.027344h-441v-245.28125h441zm0 0"/><path d="m67.789062 330.328125h147.542969c5.523438 0 10-4.476563 10-10 0-.484375-.035156-.957031-.101562-1.421875.066406-.464844.101562-.9375.101562-1.417969v-82.636719c0-5.523437-4.476562-10-10-10-5.519531 0-10 4.476563-10 10v75.472657h-38.664062v-29.382813c0-5.523437-4.480469-10-10-10-23.390625 0-42.875 17.054688-46.667969 39.382813h-32.210938v-143.96875h68.878907v49.976562h-41.167969c-5.523438 0-10 4.476563-10 10 0 5.523438 4.476562 10 10 10h51.167969c5.519531 0 10-4.476562 10-10v-59.976562h111.222656c4.050781 18.765625 19.265625 33.429687 38.320313 36.664062v30.324219h-52.210938c-5.523438 0-10 4.476562-10 10 0 5.519531 4.476562 10 10 10h52.210938v56.984375h-47.210938c-5.523438 0-10 4.476563-10 10s4.476562 10 10 10h57.210938c5.519531 0 10-4.476563 10-10v-163.972656c0-5.523438-4.480469-10-10-10h-258.421876c-5.519531 0-10 4.476562-10 10v163.972656c0 5.523437 4.480469 10 10 10zm78.878907-37.492187v17.488281h-16.15625c2.433593-7.992188 8.441406-14.445313 16.15625-17.488281zm169.542969-126.480469v16.15625c-7.996094-2.433594-14.449219-8.441407-17.492188-16.15625zm0 0"/></svg>